<svg xmlns="http://www.w3.org/2000/svg" viewBox="0 0 512 512">
  <rect width="512" height="512" rx="100" fill="#4CAF50"/>
  <path d="M256 120c-20 0-36 16-36 36v80c0 20 16 36 36 36s36-16 36-36v-80c0-20-16-36-36-36zm0 200c-20 0-36 16-36 36s16 36 36 36 36-16 36-36-16-36-36-36zm-80-80c-15 0-28 13-28 28s13 28 28 28h56c15 0 28-13 28-28s-13-28-28-28h-56zm104 0c-15 0-28 13-28 28s13 28 28 28h56c15 0 28-13 28-28s-13-28-28-28h-56z" fill="#fff"/>
  <path d="M150 380h212c20 0 36-16 36-36V168c0-20-16-36-36-36H150c-20 0-36 16-36 36v176c0 20 16 36 36 36zm20-176h172v136H170V204z" fill="#fff" opacity="0.3"/>
</svg>
